<svg version="1.2" xmlns="http://www.w3.org/2000/svg" viewBox="0 0 859 532" width="859" height="532">
	<title>data_cleaning_notes (dragged)-pdf</title>
	<defs>
		<clipPath clipPathUnits="userSpaceOnUse" id="cp1">
			<path d="m-182-248h1224v1584h-1224z"/>
		</clipPath>
		<clipPath clipPathUnits="userSpaceOnUse" id="cp2">
			<path d="m-120.36 544.39h1100.73v619.18h-1100.73z"/>
		</clipPath>
	</defs>
	<style>
		tspan { white-space:pre } 
		.s0 { fill: #ffffff } 
		.t1 { font-size: 42px;fill: #1b5e86;font-weight: 400;font-family: "TeXGyreHeros-Regular", "TeXGyreHeros" } 
		.s2 { fill: none;stroke: #006acf;stroke-linecap: round;stroke-linejoin: round;stroke-width: 3.6 } 
		.t3 { font-size: 27px;fill: #006acf;font-family: "Helvetica" } 
		.t4 { font-size: 16px;fill: #006acf;font-family: "Helvetica" } 
		.t5 { font-size: 16px;line-height: 24px;fill: #006acf;font-family: "Helvetica" } 
		.s6 { fill: none;stroke: #1a9a22;stroke-linecap: round;stroke-linejoin: round;stroke-width: 3.6 } 
		.t7 { font-size: 27px;line-height: 24px;fill: #1a9a22;font-family: "Helvetica" } 
		.t8 { font-size: 16px;line-height: 24px;fill: #1a9a22;font-family: "Helvetica" } 
		.s9 { fill: none;stroke: #e1671b;stroke-linecap: round;stroke-linejoin: round;stroke-width: 3.6 } 
		.t10 { font-size: 27px;line-height: 24px;fill: #e1671b;font-family: "Helvetica" } 
		.t11 { font-size: 16px;line-height: 24px;fill: #e1671b;font-family: "Helvetica" } 
		.s12 { fill: none;stroke: #111111;stroke-linecap: round;stroke-linejoin: round;stroke-width: 3.6 } 
		.t13 { font-size: 27px;line-height: 24px;fill: #111111;font-family: "Helvetica" } 
		.t14 { font-size: 16px;line-height: 24px;fill: #111111;font-family: "Helvetica" } 
		.s15 { fill: none;stroke: #7a0080;stroke-linecap: round;stroke-linejoin: round;stroke-width: 3.6 } 
		.t16 { font-size: 27px;line-height: 24px;fill: #7a0080;font-family: "Helvetica" } 
		.t17 { font-size: 16px;line-height: 24px;fill: #7a0080;font-family: "Helvetica" } 
		.s18 { fill: none;stroke: #000000;stroke-width: .8 } 
		.t19 { font-size: 24px;line-height: 24px;fill: #000000;font-weight: 400;font-family: "LMRoman10-Regular", "LM Roman 10" } 
		.t20 { font-size: 24px;line-height: 29px;fill: #000000;font-weight: 400;font-family: "LMRoman10-Regular", "LM Roman 10" } 
	</style>
	<g id="Page 1" clip-path="url(#cp1)">
		<path id="Path 2" class="s0" d="m-120.4-75.6h1100.8v619.2h-1100.8z"/>
		<text id="Data cleaning principles" style="transform: matrix(1,0,0,1,-99.725,-16.439)" >
			<tspan x="0" y="0" class="t1">Data cleaning principles
</tspan>
		</text>
		<path id="Path 4" class="s2" d="m422.1 311v1.1 1l-0.1 1-0.1 1-0.1 1-0.1 1-0.2 1-0.2 1-0.2 1-0.2 0.9-0.3 1-0.3 0.9-0.3 1-0.3 0.9-0.4 0.9-0.3 0.9-0.4 0.9-0.4 0.8-0.5 0.9-0.4 0.8-0.5 0.8-0.5 0.8-0.5 0.8-0.6 0.7-0.5 0.7-0.6 0.7-0.6 0.7-0.6 0.6-0.6 0.6-0.6 0.6-0.7 0.6-0.6 0.5-0.7 0.6-0.7 0.4-0.7 0.5-0.7 0.4-0.7 0.4-0.8 0.4-0.7 0.3-0.7 0.3-0.8 0.3-0.8 0.2-0.7 0.3-0.8 0.1-0.8 0.2-0.7 0.1-0.8 0.1h-0.8-0.8-346.3-0.8-0.8l-0.8-0.1-0.7-0.1-0.8-0.2-0.8-0.1-0.7-0.3-0.8-0.2-0.8-0.3-0.7-0.3-0.7-0.3-0.8-0.4-0.7-0.4-0.7-0.4-0.7-0.5-0.7-0.4-0.7-0.6-0.6-0.5-0.7-0.6-0.6-0.6-0.6-0.6-0.6-0.6-0.6-0.7-0.6-0.7-0.5-0.7-0.6-0.7-0.5-0.8-0.5-0.8-0.5-0.8-0.4-0.8-0.5-0.9-0.4-0.8-0.4-0.9-0.3-0.9-0.4-0.9-0.3-0.9-0.3-1-0.3-0.9-0.3-1-0.2-0.9-0.2-1-0.2-1-0.2-1-0.1-1-0.1-1-0.1-1-0.1-1v-1-1.1-95.1-1-1l0.1-1 0.1-1 0.1-1 0.1-1 0.2-1 0.2-1 0.2-1 0.2-1 0.3-0.9 0.3-1 0.3-0.9 0.3-0.9 0.4-1 0.3-0.8 0.4-0.9 0.4-0.9 0.5-0.8 0.4-0.9 0.5-0.8 0.5-0.7 0.5-0.8 0.6-0.7 0.5-0.8 0.6-0.7 0.6-0.6 0.6-0.7 0.6-0.6 0.6-0.6 0.7-0.6 0.6-0.5 0.7-0.5 0.7-0.5 0.7-0.4 0.7-0.5 0.7-0.4 0.8-0.3 0.7-0.4 0.7-0.3 0.8-0.3 0.8-0.2 0.7-0.2 0.8-0.2 0.8-0.1 0.7-0.1 0.8-0.1 0.8-0.1h0.8 346.3 0.8l0.8 0.1 0.8 0.1 0.7 0.1 0.8 0.1 0.8 0.2 0.7 0.2 0.8 0.2 0.8 0.3 0.7 0.3 0.7 0.4 0.8 0.3 0.7 0.4 0.7 0.5 0.7 0.4 0.7 0.5 0.7 0.5 0.6 0.5 0.7 0.6 0.6 0.6 0.6 0.6 0.6 0.7 0.6 0.6 0.6 0.7 0.5 0.8 0.6 0.7 0.5 0.8 0.5 0.7 0.5 0.8 0.4 0.9 0.5 0.8 0.4 0.9 0.4 0.9 0.3 0.8 0.4 1 0.3 0.9 0.3 0.9 0.3 1 0.3 0.9 0.2 1 0.2 1 0.2 1 0.2 1 0.1 1 0.1 1 0.1 1 0.1 1v1 1z"/>
		<text id="verify" style="transform: matrix(1,0,0,1,46.757,214.384)" >
			<tspan x="0" y="0" class="t3">verify
</tspan>
		</text>
		<text id="  6. Verify that distinct things" style="transform: matrix(1,0,0,1,55,232.885)" >
			<tspan x="0" y="12.2" class="t4">  6. Verify that distinct things are distinct</tspan><tspan  y="12.2" class="t5">
</tspan>
			<tspan x="0" y="35.9" class="t5">  7. Verify that matching things match</tspan><tspan  y="35.9" class="t5">
</tspan>
			<tspan x="0" y="59.7" class="t5">  8. Check calculations</tspan><tspan  y="59.7" class="t5">
</tspan>
			<tspan x="0" y="83.5" class="t5">  9. Look for other instances of problems
</tspan>
		</text>
		<path id="Path 7" class="s6" d="m833 311v1.1 1l-0.1 1-0.1 1-0.1 1-0.1 1-0.2 1-0.2 1-0.2 1-0.2 0.9-0.3 1-0.3 0.9-0.3 1-0.3 0.9-0.3 0.9-0.4 0.9-0.4 0.9-0.4 0.8-0.5 0.9-0.4 0.8-0.5 0.8-0.5 0.8-0.5 0.8-0.5 0.7-0.6 0.7-0.6 0.7-0.6 0.7-0.6 0.6-0.6 0.6-0.6 0.6-0.7 0.6-0.6 0.5-0.7 0.6-0.7 0.4-0.7 0.5-0.7 0.4-0.7 0.4-0.7 0.4-0.8 0.3-0.7 0.3-0.8 0.3-0.7 0.2-0.8 0.3-0.8 0.1-0.8 0.2-0.7 0.1-0.8 0.1h-0.8-0.8-346.3-0.8-0.8l-0.7-0.1-0.8-0.1-0.8-0.2-0.8-0.1-0.7-0.3-0.8-0.2-0.7-0.3-0.8-0.3-0.7-0.3-0.7-0.4-0.8-0.4-0.7-0.4-0.7-0.5-0.7-0.4-0.6-0.6-0.7-0.5-0.7-0.6-0.6-0.6-0.6-0.6-0.6-0.6-0.6-0.7-0.6-0.7-0.5-0.7-0.6-0.7-0.5-0.8-0.5-0.8-0.4-0.8-0.5-0.8-0.4-0.9-0.5-0.8-0.3-0.9-0.4-0.9-0.4-0.9-0.3-0.9-0.3-1-0.3-0.9-0.2-1-0.3-0.9-0.2-1-0.2-1-0.1-1-0.2-1-0.1-1-0.1-1v-1l-0.1-1v-1.1-95.1-1l0.1-1v-1l0.1-1 0.1-1 0.2-1 0.1-1 0.2-1 0.2-1 0.3-1 0.2-0.9 0.3-1 0.3-0.9 0.3-0.9 0.4-1 0.4-0.8 0.3-0.9 0.5-0.9 0.4-0.8 0.5-0.9 0.4-0.8 0.5-0.7 0.5-0.8 0.6-0.7 0.5-0.8 0.6-0.7 0.6-0.6 0.6-0.7 0.6-0.6 0.6-0.6 0.7-0.6 0.7-0.5 0.6-0.5 0.7-0.5 0.7-0.4 0.7-0.5 0.8-0.4 0.7-0.3 0.7-0.4 0.8-0.3 0.7-0.3 0.8-0.2 0.7-0.2 0.8-0.2 0.8-0.1 0.8-0.1 0.7-0.1 0.8-0.1h0.8 346.3 0.8l0.8 0.1 0.8 0.1 0.7 0.1 0.8 0.1 0.8 0.2 0.8 0.2 0.7 0.2 0.8 0.3 0.7 0.3 0.8 0.4 0.7 0.3 0.7 0.4 0.7 0.5 0.7 0.4 0.7 0.5 0.7 0.5 0.6 0.5 0.7 0.6 0.6 0.6 0.6 0.6 0.6 0.7 0.6 0.6 0.6 0.7 0.6 0.8 0.5 0.7 0.5 0.8 0.5 0.7 0.5 0.8 0.4 0.9 0.5 0.8 0.4 0.9 0.4 0.9 0.4 0.8 0.3 1 0.3 0.9 0.3 0.9 0.3 1 0.3 0.9 0.2 1 0.2 1 0.2 1 0.2 1 0.1 1 0.1 1 0.1 1 0.1 1v1 1z"/>
		<text id="explore" style="transform: matrix(1,0,0,1,457.67,214.384)" >
			<tspan x="0" y="0" class="t7">explore
</tspan>
		</text>
		<text id="10. Make lots of plots 11. Look " style="transform: matrix(1,0,0,1,466,232.885)" >
			<tspan x="0" y="12.2" class="t8">10. Make lots of plots
</tspan>
			<tspan x="0" y="35.9" class="t8">11. Look at missing value patterns</tspan><tspan  y="35.9" class="t8">
</tspan>
			<tspan x="0" y="59.7" class="t8">12. With big data make more plots</tspan><tspan  y="59.7" class="t8">
</tspan>
			<tspan x="0" y="83.5" class="t8">13. Follow up all artifacts
</tspan>
		</text>
		<path id="Path 10" class="s9" d="m422.1 482.2v1.1 1l-0.1 1-0.1 1-0.1 1-0.1 1-0.2 1-0.2 1-0.2 1-0.2 0.9-0.3 1-0.3 0.9-0.3 1-0.3 0.9-0.4 0.9-0.3 0.9-0.4 0.9-0.4 0.8-0.5 0.9-0.4 0.8-0.5 0.8-0.5 0.8-0.5 0.8-0.6 0.7-0.5 0.7-0.6 0.7-0.6 0.7-0.6 0.6-0.6 0.7-0.6 0.6-0.7 0.5-0.6 0.6-0.7 0.5-0.7 0.5-0.7 0.4-0.7 0.4-0.7 0.4-0.8 0.4-0.7 0.3-0.7 0.3-0.8 0.3-0.8 0.3-0.7 0.2-0.8 0.2-0.8 0.1-0.7 0.1-0.8 0.1h-0.8l-0.8 0.1h-346.3l-0.8-0.1h-0.8l-0.8-0.1-0.7-0.1-0.8-0.1-0.8-0.2-0.7-0.2-0.8-0.3-0.8-0.3-0.7-0.3-0.7-0.3-0.8-0.4-0.7-0.4-0.7-0.4-0.7-0.4-0.7-0.5-0.7-0.5-0.6-0.6-0.7-0.5-0.6-0.6-0.6-0.7-0.6-0.6-0.6-0.7-0.6-0.7-0.5-0.7-0.6-0.7-0.5-0.8-0.5-0.8-0.5-0.8-0.4-0.8-0.5-0.9-0.4-0.8-0.4-0.9-0.3-0.9-0.4-0.9-0.3-0.9-0.3-1-0.3-0.9-0.3-1-0.2-0.9-0.2-1-0.2-1-0.2-1-0.1-1-0.1-1-0.1-1-0.1-1v-1-1.1-95.1-1-1l0.1-1 0.1-1 0.1-1 0.1-1 0.2-1 0.2-1 0.2-1 0.2-1 0.3-0.9 0.3-1 0.3-0.9 0.3-0.9 0.4-0.9 0.3-0.9 0.4-0.9 0.4-0.9 0.5-0.8 0.4-0.8 0.5-0.8 0.5-0.8 0.5-0.8 0.6-0.7 0.5-0.7 0.6-0.7 0.6-0.7 0.6-0.7 0.6-0.6 0.6-0.6 0.7-0.5 0.6-0.6 0.7-0.5 0.7-0.5 0.7-0.4 0.7-0.5 0.7-0.4 0.8-0.3 0.7-0.4 0.7-0.3 0.8-0.2 0.8-0.3 0.7-0.2 0.8-0.2 0.8-0.1 0.7-0.1 0.8-0.1 0.8-0.1h0.8 346.3 0.8l0.8 0.1 0.8 0.1 0.7 0.1 0.8 0.1 0.8 0.2 0.7 0.2 0.8 0.3 0.8 0.2 0.7 0.3 0.7 0.4 0.8 0.3 0.7 0.4 0.7 0.5 0.7 0.4 0.7 0.5 0.7 0.5 0.6 0.6 0.7 0.5 0.6 0.6 0.6 0.6 0.6 0.7 0.6 0.7 0.6 0.7 0.5 0.7 0.6 0.7 0.5 0.8 0.5 0.8 0.5 0.8 0.4 0.8 0.5 0.8 0.4 0.9 0.4 0.9 0.3 0.9 0.4 0.9 0.3 0.9 0.3 0.9 0.3 1 0.3 0.9 0.2 1 0.2 1 0.2 1 0.2 1 0.1 1 0.1 1 0.1 1 0.1 1v1 1z"/>
		<text id="ask" style="transform: matrix(1,0,0,1,46.757,385.598)" >
			<tspan x="0" y="0" class="t10">ask
</tspan>
		</text>
		<text id="14. Ask questions 15. Ask for th" style="transform: matrix(1,0,0,1,55,404.099)" >
			<tspan x="0" y="12.2" class="t11">14. Ask questions
</tspan>
			<tspan x="0" y="35.9" class="t11">15. Ask for the primary data
</tspan>
			<tspan x="0" y="59.7" class="t11">16. Ask for metadata
</tspan>
			<tspan x="0" y="83.5" class="t11">17. Ask why data are missing
</tspan>
		</text>
		<path id="Path 13" class="s12" d="m833 482.2v1.1 1l-0.1 1-0.1 1-0.1 1-0.1 1-0.2 1-0.2 1-0.2 1-0.2 0.9-0.3 1-0.3 0.9-0.3 1-0.3 0.9-0.3 0.9-0.4 0.9-0.4 0.9-0.4 0.8-0.5 0.9-0.4 0.8-0.5 0.8-0.5 0.8-0.5 0.8-0.5 0.7-0.6 0.7-0.6 0.7-0.6 0.7-0.6 0.6-0.6 0.7-0.6 0.6-0.7 0.5-0.6 0.6-0.7 0.5-0.7 0.5-0.7 0.4-0.7 0.4-0.7 0.4-0.7 0.4-0.8 0.3-0.7 0.3-0.8 0.3-0.7 0.3-0.8 0.2-0.8 0.2-0.8 0.1-0.7 0.1-0.8 0.1h-0.8l-0.8 0.1h-346.3l-0.8-0.1h-0.8l-0.7-0.1-0.8-0.1-0.8-0.1-0.8-0.2-0.7-0.2-0.8-0.3-0.7-0.3-0.8-0.3-0.7-0.3-0.7-0.4-0.8-0.4-0.7-0.4-0.7-0.4-0.7-0.5-0.6-0.5-0.7-0.6-0.7-0.5-0.6-0.6-0.6-0.7-0.6-0.6-0.6-0.7-0.6-0.7-0.5-0.7-0.6-0.7-0.5-0.8-0.5-0.8-0.4-0.8-0.5-0.8-0.4-0.9-0.5-0.8-0.3-0.9-0.4-0.9-0.4-0.9-0.3-0.9-0.3-1-0.3-0.9-0.2-1-0.3-0.9-0.2-1-0.2-1-0.1-1-0.2-1-0.1-1-0.1-1v-1l-0.1-1v-1.1-95.1-1l0.1-1v-1l0.1-1 0.1-1 0.2-1 0.1-1 0.2-1 0.2-1 0.3-1 0.2-0.9 0.3-1 0.3-0.9 0.3-0.9 0.4-0.9 0.4-0.9 0.3-0.9 0.5-0.9 0.4-0.8 0.5-0.8 0.4-0.8 0.5-0.8 0.5-0.8 0.6-0.7 0.5-0.7 0.6-0.7 0.6-0.7 0.6-0.7 0.6-0.6 0.6-0.6 0.7-0.5 0.7-0.6 0.6-0.5 0.7-0.5 0.7-0.4 0.7-0.5 0.8-0.4 0.7-0.3 0.7-0.4 0.8-0.3 0.7-0.2 0.8-0.3 0.7-0.2 0.8-0.2 0.8-0.1 0.8-0.1 0.7-0.1 0.8-0.1h0.8 346.3 0.8l0.8 0.1 0.8 0.1 0.7 0.1 0.8 0.1 0.8 0.2 0.8 0.2 0.7 0.3 0.8 0.2 0.7 0.3 0.8 0.4 0.7 0.3 0.7 0.4 0.7 0.5 0.7 0.4 0.7 0.5 0.7 0.5 0.6 0.6 0.7 0.5 0.6 0.6 0.6 0.6 0.6 0.7 0.6 0.7 0.6 0.7 0.6 0.7 0.5 0.7 0.5 0.8 0.5 0.8 0.5 0.8 0.4 0.8 0.5 0.8 0.4 0.9 0.4 0.9 0.4 0.9 0.3 0.9 0.3 0.9 0.3 0.9 0.3 1 0.3 0.9 0.2 1 0.2 1 0.2 1 0.2 1 0.1 1 0.1 1 0.1 1 0.1 1v1 1z"/>
		<text id="document" style="transform: matrix(1,0,0,1,457.67,385.598)" >
			<tspan x="0" y="0" class="t13">document
</tspan>
		</text>
		<text id="18. Create checklists &amp; pipeline" style="transform: matrix(1,0,0,1,466,404.099)" >
			<tspan x="0" y="12.2" class="t14">18. Create checklists &amp; pipelines
</tspan>
			<tspan x="0" y="35.9" class="t14">19. Document not just what but why
</tspan>
			<tspan x="0" y="59.7" class="t14">20. Expect to recheck
</tspan>
		</text>
		<path id="Path 16" class="s15" d="m833 139.8v1 1.1l-0.1 1-0.1 1-0.1 1-0.1 1-0.2 1-0.2 1-0.2 0.9-0.2 1-0.3 1-0.3 0.9-0.3 1-0.3 0.9-0.3 0.9-0.4 0.9-0.4 0.9-0.4 0.8-0.5 0.9-0.4 0.8-0.5 0.8-0.5 0.8-0.5 0.7-0.5 0.8-0.6 0.7-0.6 0.7-0.6 0.7-0.6 0.6-0.6 0.6-0.6 0.6-0.7 0.6-0.6 0.5-0.7 0.5-0.7 0.5-0.7 0.5-0.7 0.4-0.7 0.4-0.7 0.4-0.8 0.3-0.7 0.3-0.8 0.3-0.7 0.2-0.8 0.2-0.8 0.2-0.8 0.2-0.7 0.1-0.8 0.1h-0.8-0.8-757.2-0.8-0.8l-0.8-0.1-0.7-0.1-0.8-0.2-0.8-0.2-0.7-0.2-0.8-0.2-0.8-0.3-0.7-0.3-0.7-0.3-0.8-0.4-0.7-0.4-0.7-0.4-0.7-0.5-0.7-0.5-0.7-0.5-0.6-0.5-0.7-0.6-0.6-0.6-0.6-0.6-0.6-0.6-0.6-0.7-0.6-0.7-0.5-0.7-0.6-0.8-0.5-0.7-0.5-0.8-0.5-0.8-0.4-0.8-0.5-0.9-0.4-0.8-0.4-0.9-0.3-0.9-0.4-0.9-0.3-0.9-0.3-1-0.3-0.9-0.3-1-0.2-1-0.2-0.9-0.2-1-0.2-1-0.1-1-0.1-1-0.1-1-0.1-1v-1.1-1-95.1-1-1l0.1-1 0.1-1.1 0.1-1 0.1-1 0.2-1 0.2-0.9 0.2-1 0.2-1 0.3-0.9 0.3-1 0.3-0.9 0.3-1 0.4-0.9 0.3-0.9 0.4-0.8 0.4-0.9 0.5-0.8 0.4-0.9 0.5-0.8 0.5-0.8 0.5-0.7 0.6-0.8 0.5-0.7 0.6-0.7 0.6-0.6 0.6-0.7 0.6-0.6 0.6-0.6 0.7-0.6 0.6-0.5 0.7-0.5 0.7-0.5 0.7-0.5 0.7-0.4 0.7-0.4 0.8-0.4 0.7-0.3 0.7-0.3 0.8-0.3 0.8-0.2 0.7-0.2 0.8-0.2 0.8-0.1 0.7-0.2h0.8l0.8-0.1h0.8 757.2 0.8l0.8 0.1h0.8l0.7 0.2 0.8 0.1 0.8 0.2 0.8 0.2 0.7 0.2 0.8 0.3 0.7 0.3 0.8 0.3 0.7 0.4 0.7 0.4 0.7 0.4 0.7 0.5 0.7 0.5 0.7 0.5 0.6 0.5 0.7 0.6 0.6 0.6 0.6 0.6 0.6 0.7 0.6 0.6 0.6 0.7 0.6 0.7 0.5 0.8 0.5 0.7 0.5 0.8 0.5 0.8 0.4 0.9 0.5 0.8 0.4 0.9 0.4 0.8 0.4 0.9 0.3 0.9 0.3 1 0.3 0.9 0.3 1 0.3 0.9 0.2 1 0.2 1 0.2 0.9 0.2 1 0.1 1 0.1 1 0.1 1.1 0.1 1v1 1z"/>
		<text id="fundamentals" style="transform: matrix(1,0,0,1,46.757,43.171)" >
			<tspan x="0" y="0" class="t16">fundamentals
</tspan>
		</text>
		<text id="  1. Don't clean data when tired" style="transform: matrix(1,0,0,1,55,53.748)" >
			<tspan x="0" y="12.2" class="t17">  1. Don't clean data when tired or hungry
</tspan>
			<tspan x="0" y="35.9" class="t17">  2. Don't trust anyone (even yourself)
</tspan>
			<tspan x="0" y="59.7" class="t17">  3. Think about what might have gone wrong
</tspan>
			<tspan x="0" y="83.5" class="t17">  4. Use care in merging
</tspan>
			<tspan x="0" y="107.3" class="t17">  5. Dates &amp; categories suck
</tspan>
		</text>
		<path id="Path 18" class="s18" d="m-121.2-76h1102.4m-1102 620v-620m1101.6 620v-620m-1102 620h1102.4"/>
		<g id="Mask" clip-path="url(#cp2)">
			<text id="In summary, data cleaning is not" style="transform: matrix(1,0,0,1,-52,585.5)" >
				<tspan x="0" y="16.7" class="t19">In summary, data cleaning is not an activity that needs to be constructed from scratch in</tspan><tspan  y="16.7" class="t20">
</tspan>
				<tspan x="0" y="45.7" class="t20">each instance for each dataset. There are a number of principles that can guide our approach</tspan><tspan  y="45.7" class="t20">
</tspan>
				<tspan x="0" y="74.7" class="t20">to cleaning data.
</tspan>
			</text>
			<text id="There may actually be more commo" style="transform: matrix(1,0,0,1,-52,701.561)" >
				<tspan x="0" y="16.7" class="t20">There may actually be more commonalities in our data cleaning experiences and methods</tspan><tspan  y="16.7" class="t20">
</tspan>
				<tspan x="0" y="45.7" class="t20">than in the following stages of our data analysis work.
</tspan>
			</text>
		</g>
		<path id="Path 23" class="s18" d="m-121.2 544h1102.4m-1102 620v-620m1101.6 620v-620m-1102 620h1102.4"/>
	</g>
</svg>